<svg xmlns="http://www.w3.org/2000/svg">
  <defs>
    <symbol id="portfolio" viewBox="0 0 16 16">
      <path d="M15.5,2H15v9c0,0.6-0.4,1-1,1H9.7l1.2,2.3c0.2,0.2,0.1,0.5-0.2,0.6c-0.3,0.1-0.6,0.1-0.8-0.2l-1.4-2.6
      	c0-0.1-0.1-0.1-0.1-0.2h-1c0,0.1,0,0.1-0.1,0.2L6,14.8c-0.2,0.2-0.5,0.3-0.8,0.2c-0.3-0.1-0.4-0.4-0.2-0.6L6.3,12H2
      	c-0.6,0-1-0.4-1-1V2H0.5C0.2,2,0,1.8,0,1.5C0,1.2,0.2,1,0.5,1H2h12h1.5C15.8,1,16,1.2,16,1.5C16,1.8,15.8,2,15.5,2z M14,2h-0.5
      	c0,0,0,0,0,0h-11c0,0,0,0,0,0H2v0.5l0,0v8C2,10.8,2.2,11,2.5,11h11c0.3,0,0.5-0.2,0.5-0.5V3l0,0V2z"/>
    </symbol>

    <symbol id="about" viewBox="0 0 16 16">
      <path d="M16,15c0,0.8-0.4,1-1,1H1c-0.6,0-1-0.3-1-1c0-0.7,2.8-2.2,5.2-3.1C3.9,10.7,3,8.7,3,6.5C3,2.9,5.2,0,8,0c2.8,0,5,2.9,5,6.5
      	c0,2.2-0.9,4.2-2.2,5.4C13.2,12.8,16,14.3,16,15z M12,6.5c0-3-1.8-5.5-4-5.5S4,3.5,4,6.5S5.8,12,8,12S12,9.5,12,6.5z M9.8,12.5
      	C9.3,12.8,8.7,13,8,13s-1.3-0.2-1.8-0.5c-1.7,0.7-4,1.8-4.9,2.5h13.5C13.8,14.3,11.6,13.2,9.8,12.5z"/>
    </symbol>

    <symbol id="mail" viewBox="0 0 72 72">
      <path d="M25.822,35.535L9.837,19.553V51.52L25.822,35.535z"/>
      <path d="M38.255,41.438L60.98,18.715H12.013l22.725,22.723C35.677,42.377,37.316,42.377,38.255,41.438z"/>
      <path d="M45.666,37.043l-5.902,5.902c-0.871,0.873-2.031,1.354-3.266,1.354c-1.234,0-2.394-0.48-3.266-1.354l-5.902-5.9
        L11.538,52.836h49.921L45.667,37.043H45.666z"/>
      <path d="M47.175,35.535l15.977,15.977V19.56L47.175,35.535z"/>
    </symbol>

    <symbol id="facebook" viewBox="0 0 72 72">
      <path d="M42.316,21.66h6.174v-9.136h-7.256v0.034c-8.791,0.31-10.594,5.262-10.752,10.462h-0.018v4.562h-5.987
        v8.95h5.987v23.981h9.022V36.532h7.39l1.427-8.95h-8.817v-2.755C39.486,23.071,40.652,21.66,42.316,21.66z"/>
    </symbol>

    <symbol id="twitter" viewBox="0 0 72 72">
      <path d="M55.177,26.233c0,0.054,0.005,0.102,0.005,0.146c0,0.039-0.005,0.086-0.005,0.128
      c0,0.015,0.005,0.038,0.005,0.052c0.668,15.974-11.736,28.915-27.708,28.915c-5.621,0-10.931-1.607-15.486-4.378
      c6.705,1.064,12.124-2.275,13.711-4.107c-4.455,0-8.532-3.805-8.849-6.721c0.9,0.135,2.956,0.312,4.122-0.315
      c-6.046-1.657-7.707-6.226-7.636-9.671c1.01,0.982,3.16,1.206,4.323,1.113c-3.407-2.103-6.002-7.884-3.003-13.079
      c4.886,6.364,13.556,10.08,20.972,10.271h0.003c-0.164-0.712-0.255-1.445-0.255-2.209c0-5.467,4.435-9.9,9.9-9.9
      c2.817,0,5.354,1.177,7.158,3.062c-0.003-0.003-0.003-0.003-0.003-0.003c1.582,0,4.783-1.3,6.177-2.191
      c-0.53,2.039-2.677,4.598-4.127,5.378c2.261-0.224,4.687-1.109,5.495-1.553C58.581,23.485,56.63,25.24,55.177,26.233z"/>
    </symbol>

    <symbol id="instagram" viewBox="0 0 72 72">
      <path display="inline" fill-rule="evenodd" clip-rule="evenodd" d="M49.583,14.526H22.918c-3.82,0-6.918,3.148-6.918,7.03v30.933
        c0,3.882,3.098,7.031,6.918,7.031h26.665c3.82,0,6.917-3.149,6.917-7.031V21.557C56.5,17.675,53.403,14.526,49.583,14.526z
         M45.935,18.128h7.044v7.197h-7.044V18.128z M36.25,27.118c5.343,0,9.674,4.433,9.674,9.898c0,5.465-4.331,9.898-9.674,9.898
        c-5.342,0-9.674-4.434-9.674-9.898C26.576,31.551,30.908,27.118,36.25,27.118z M54.739,51.87c0,3.231-2.495,5.85-5.572,5.85H23.333
        c-3.077,0-5.572-2.619-5.572-5.85V40.172c0-0.152,0.032-0.298,0.044-0.449h-0.044v-5.398h5.283v0.029
        c0.092-0.006,0.179-0.026,0.271-0.028c-0.173,0.871-0.265,1.773-0.265,2.698c0,7.45,5.91,13.492,13.2,13.492
        c7.291,0,13.2-6.042,13.2-13.492c0-0.925-0.092-1.827-0.265-2.698c0.092,0.002,0.179,0.022,0.271,0.028v-0.029h5.282v5.398h-0.042
        c0.011,0.151,0.043,0.297,0.043,0.449V51.87z"/>
    </symbol>

  </defs>
</svg>
